# xmcd
#
# Track frame offsets: 
#        150
#        20997
#        36532
#
# Disc length: 608 seconds
#
# Revision: 0
# Processed by: cddbd v1.5.2PL0 Copyright (c) Steve Scherf et al.
# Submitted via: ExactAudioCopy v1.0b1
#
DISCID=27025e03
DTITLE=Blues Aholics - Strange Pictures
DYEAR=1994
DGENRE=Blues
TTITLE0=Strange Pictures
TTITLE1=Again and Again
TTITLE2=Back in the U.S.S.R.
EXTD=
EXTT0=
EXTT1=
EXTT2=
PLAYORDER=
